<mxfile host="65bd71144e">
    <diagram id="asahRVXm402HO0iXxsYi" name="Page-1">
        <mxGraphModel dx="380" dy="276" grid="1" gridSize="10" guides="1" tooltips="1" connect="1" arrows="1" fold="1" page="1" pageScale="1" pageWidth="827" pageHeight="1169" math="0" shadow="0">
            <root>
                <mxCell id="0"/>
                <mxCell id="1" parent="0"/>
                <mxCell id="2" value="User" style="shape=umlLifeline;perimeter=lifelinePerimeter;whiteSpace=wrap;html=1;container=1;collapsible=0;recursiveResize=0;outlineConnect=0;" parent="1" vertex="1">
                    <mxGeometry x="90" y="110" width="100" height="600" as="geometry"/>
                </mxCell>
                <mxCell id="4" value="Client App" style="shape=umlLifeline;perimeter=lifelinePerimeter;whiteSpace=wrap;html=1;container=1;collapsible=0;recursiveResize=0;outlineConnect=0;" parent="1" vertex="1">
                    <mxGeometry x="280" y="110" width="100" height="600" as="geometry"/>
                </mxCell>
                <mxCell id="9" value="" style="html=1;points=[];perimeter=orthogonalPerimeter;" parent="4" vertex="1">
                    <mxGeometry x="45" y="80" width="10" height="140" as="geometry"/>
                </mxCell>
                <mxCell id="15" value="" style="html=1;points=[];perimeter=orthogonalPerimeter;" parent="4" vertex="1">
                    <mxGeometry x="-145" y="80" width="10" height="440" as="geometry"/>
                </mxCell>
                <mxCell id="22" value="" style="html=1;points=[];perimeter=orthogonalPerimeter;" parent="4" vertex="1">
                    <mxGeometry x="45" y="300" width="10" height="220" as="geometry"/>
                </mxCell>
                <mxCell id="34" value="返回数据" style="html=1;verticalAlign=bottom;endArrow=block;dashed=1;" parent="4" source="22" target="15" edge="1">
                    <mxGeometry width="80" relative="1" as="geometry">
                        <mxPoint x="10" y="570" as="sourcePoint"/>
                        <mxPoint x="-120" y="570" as="targetPoint"/>
                        <Array as="points">
                            <mxPoint x="-20" y="500"/>
                            <mxPoint x="-90" y="500"/>
                        </Array>
                    </mxGeometry>
                </mxCell>
                <mxCell id="10" value="请求第三方登录" style="html=1;verticalAlign=bottom;endArrow=block;" parent="4" source="15" target="9" edge="1">
                    <mxGeometry width="80" relative="1" as="geometry">
                        <mxPoint x="-120" y="90" as="sourcePoint"/>
                        <mxPoint x="30" y="90" as="targetPoint"/>
                        <Array as="points">
                            <mxPoint x="30" y="90"/>
                        </Array>
                    </mxGeometry>
                </mxCell>
                <mxCell id="16" value="展示登录表单" style="html=1;verticalAlign=bottom;endArrow=block;dashed=1;" parent="4" source="9" target="15" edge="1">
                    <mxGeometry width="80" relative="1" as="geometry">
                        <mxPoint x="40" y="180" as="sourcePoint"/>
                        <mxPoint x="-130" y="180" as="targetPoint"/>
                        <Array as="points">
                            <mxPoint x="-10" y="130"/>
                            <mxPoint x="-80" y="130"/>
                        </Array>
                    </mxGeometry>
                </mxCell>
                <mxCell id="19" value="登录&lt;br&gt;(username, password)" style="html=1;verticalAlign=bottom;endArrow=block;" parent="4" source="15" target="9" edge="1">
                    <mxGeometry width="80" relative="1" as="geometry">
                        <mxPoint x="-100" y="220" as="sourcePoint"/>
                        <mxPoint x="40" y="180" as="targetPoint"/>
                        <Array as="points">
                            <mxPoint x="-110" y="180"/>
                            <mxPoint x="-20" y="180"/>
                        </Array>
                    </mxGeometry>
                </mxCell>
                <mxCell id="5" value="Authorization Server" style="shape=umlLifeline;perimeter=lifelinePerimeter;whiteSpace=wrap;html=1;container=1;collapsible=0;recursiveResize=0;outlineConnect=0;" parent="1" vertex="1">
                    <mxGeometry x="470" y="110" width="100" height="600" as="geometry"/>
                </mxCell>
                <mxCell id="8" value="Resource&lt;br&gt;Server" style="shape=umlLifeline;perimeter=lifelinePerimeter;whiteSpace=wrap;html=1;container=1;collapsible=0;recursiveResize=0;outlineConnect=0;" parent="1" vertex="1">
                    <mxGeometry x="740" y="110" width="100" height="600" as="geometry"/>
                </mxCell>
                <mxCell id="29" value="" style="html=1;points=[];perimeter=orthogonalPerimeter;" parent="8" vertex="1">
                    <mxGeometry x="45" y="395" width="10" height="80" as="geometry"/>
                </mxCell>
                <mxCell id="12" value="" style="html=1;points=[];perimeter=orthogonalPerimeter;" parent="1" vertex="1">
                    <mxGeometry x="515" y="240" width="10" height="210" as="geometry"/>
                </mxCell>
                <mxCell id="20" value="&amp;nbsp;校验 client_id 与 client_secret 匹配&lt;br&gt;&amp;nbsp;校验 client_id 与 redirect_uri 匹配&lt;br&gt;&amp;nbsp;校验 用户名 和 密码&amp;nbsp;" style="edgeStyle=orthogonalEdgeStyle;html=1;align=left;spacingLeft=2;endArrow=block;rounded=0;" parent="1" edge="1">
                    <mxGeometry relative="1" as="geometry">
                        <mxPoint x="525" y="350" as="sourcePoint"/>
                        <Array as="points">
                            <mxPoint x="555" y="350"/>
                        </Array>
                        <mxPoint x="525" y="370" as="targetPoint"/>
                    </mxGeometry>
                </mxCell>
                <mxCell id="27" value="返回 access_token" style="html=1;verticalAlign=bottom;endArrow=block;dashed=1;" parent="1" edge="1">
                    <mxGeometry width="80" relative="1" as="geometry">
                        <mxPoint x="515" y="430" as="sourcePoint"/>
                        <mxPoint x="335" y="430" as="targetPoint"/>
                        <Array as="points">
                            <mxPoint x="460" y="430"/>
                        </Array>
                    </mxGeometry>
                </mxCell>
                <mxCell id="30" value="请求资源&lt;br&gt;（携带 access_token）" style="html=1;verticalAlign=bottom;endArrow=block;" parent="1" edge="1">
                    <mxGeometry width="80" relative="1" as="geometry">
                        <mxPoint x="335" y="520" as="sourcePoint"/>
                        <mxPoint x="784.9999999999998" y="520" as="targetPoint"/>
                        <Array as="points">
                            <mxPoint x="390" y="520"/>
                        </Array>
                    </mxGeometry>
                </mxCell>
                <mxCell id="31" value="&amp;nbsp;校验 access_token" style="edgeStyle=orthogonalEdgeStyle;html=1;align=left;spacingLeft=2;endArrow=block;rounded=0;" parent="1" edge="1">
                    <mxGeometry relative="1" as="geometry">
                        <mxPoint x="797" y="540" as="sourcePoint"/>
                        <Array as="points">
                            <mxPoint x="827" y="540"/>
                        </Array>
                        <mxPoint x="797" y="560" as="targetPoint"/>
                    </mxGeometry>
                </mxCell>
                <mxCell id="32" value="返回资源" style="html=1;verticalAlign=bottom;endArrow=block;dashed=1;" parent="1" edge="1">
                    <mxGeometry width="80" relative="1" as="geometry">
                        <mxPoint x="784.9999999999998" y="572" as="sourcePoint"/>
                        <mxPoint x="335" y="572" as="targetPoint"/>
                        <Array as="points">
                            <mxPoint x="715" y="572"/>
                        </Array>
                    </mxGeometry>
                </mxCell>
                <mxCell id="35" value="发送鉴权请求&lt;br&gt;(client_id, client_secret,&lt;br&gt;username, password, scope)" style="html=1;verticalAlign=bottom;endArrow=block;" edge="1" parent="1">
                    <mxGeometry width="80" relative="1" as="geometry">
                        <mxPoint x="335" y="320" as="sourcePoint"/>
                        <mxPoint x="515" y="320" as="targetPoint"/>
                        <Array as="points">
                            <mxPoint x="390" y="320"/>
                        </Array>
                    </mxGeometry>
                </mxCell>
            </root>
        </mxGraphModel>
    </diagram>
</mxfile>